<svg xmlns="http://www.w3.org/2000/svg" xmlns:v="https://svgstorm.com"
viewBox = "0 0 512 512"
width="512"
height="512">
<g fill="None" fill-opacity="0.0" stroke="#000000" stroke-opacity="0.00" stroke-width="0.3"><path d="
M 0.00 85.00 
C 3.76 42.16 42.23 3.75 85.00 0.00
L 0.00 0.00
L 0.00 85.00 Z"/>
</g>
<g fill="None" fill-opacity="0.0" stroke="#323232" stroke-opacity="1.00" stroke-width="0.3"><path d="
M 0.00 85.00 
L 0.00 429.00
C 5.02 470.36 41.71 507.00 83.00 512.00
L 429.00 512.00
C 470.36 506.98 507.00 470.29 512.00 429.00
L 512.00 85.00
C 508.33 42.71 470.84 5.10 429.00 0.00
L 85.00 0.00
C 42.23 3.75 3.76 42.16 0.00 85.00
M 272.00 366.00 
C 273.91 376.14 269.46 381.37 272.00 392.00 C 274.54 402.63 265.80 404.39 257.00 403.00 C 248.20 401.61 237.51 406.68 238.00 396.00 C 238.49 385.32 237.63 379.26 238.00 369.00
C 228.36 367.84 219.06 366.77 209.78 364.22 C 200.50 361.67 193.57 360.04 184.92 355.08 C 176.27 350.12 184.73 340.77 185.93 331.93 C 187.12 323.08 190.23 312.06 199.23 318.77 C 208.23 325.48 214.85 324.16 224.07 327.93 C 233.30 331.70 243.79 330.04 253.01 330.01 C 262.22 329.98 270.71 326.68 277.25 320.25 C 283.79 313.82 284.92 302.19 280.68 294.32 C 276.44 286.46 269.27 282.93 261.97 279.03 C 254.67 275.12 245.73 271.99 237.98 269.02 C 230.22 266.06 222.42 262.03 215.30 257.70 C 208.18 253.37 202.87 249.55 196.75 243.25 C 190.63 236.95 187.70 229.45 185.01 220.99 C 182.32 212.53 182.60 199.47 184.93 190.93 C 187.26 182.39 190.38 174.72 196.25 168.25 C 202.12 161.78 207.03 156.88 214.75 152.75 C 222.46 148.61 231.19 145.11 240.00 144.00
C 241.97 135.06 237.37 121.47 240.00 113.00 C 242.63 104.53 258.24 109.85 267.00 109.00 C 275.76 108.15 275.65 123.16 274.00 133.00 C 272.35 142.84 285.20 143.09 294.01 143.99 C 302.82 144.89 308.50 149.52 317.22 151.78 C 325.95 154.04 320.28 166.04 318.07 172.07 C 315.86 178.11 315.25 193.19 307.31 189.69 C 299.36 186.20 293.36 182.97 284.98 181.02 C 276.60 179.08 264.67 178.50 256.00 179.00 C 247.33 179.50 240.15 182.45 235.08 189.08 C 230.02 195.72 230.21 205.51 234.92 212.08 C 239.63 218.65 246.36 221.34 253.08 224.92 C 259.79 228.51 268.10 230.82 275.02 233.98 C 281.95 237.13 289.48 240.22 296.08 243.92 C 302.68 247.63 308.27 251.78 313.75 257.25 C 319.23 262.71 323.92 267.93 326.77 275.23 C 329.62 282.53 331.74 292.94 331.98 301.02 C 332.21 309.11 329.65 319.42 326.68 326.68 C 323.71 333.93 319.43 339.40 314.25 345.25 C 309.06 351.09 302.79 354.25 295.92 357.92 C 289.06 361.60 279.95 365.02 272.00 366.00 Z"/>
</g>
<g fill="None" fill-opacity="0.0" stroke="#000000" stroke-opacity="0.00" stroke-width="0.3"><path d="
M 512.00 85.00 
L 512.00 0.00
L 429.00 0.00
C 470.84 5.10 508.33 42.71 512.00 85.00 Z"/>
</g>
<g fill="None" fill-opacity="0.0" stroke="#000000" stroke-opacity="0.00" stroke-width="0.3"><path d="
M 272.00 366.00 
C 279.95 365.02 289.06 361.60 295.92 357.92 C 302.79 354.25 309.06 351.09 314.25 345.25 C 319.43 339.40 323.71 333.93 326.68 326.68 C 329.65 319.42 332.21 309.11 331.98 301.02 C 331.74 292.94 329.62 282.53 326.77 275.23 C 323.92 267.93 319.23 262.71 313.75 257.25 C 308.27 251.78 302.68 247.63 296.08 243.92 C 289.48 240.22 281.95 237.13 275.02 233.98 C 268.10 230.82 259.79 228.51 253.08 224.92 C 246.36 221.34 239.63 218.65 234.92 212.08 C 230.21 205.51 230.02 195.72 235.08 189.08 C 240.15 182.45 247.33 179.50 256.00 179.00 C 264.67 178.50 276.60 179.08 284.98 181.02 C 293.36 182.97 299.36 186.20 307.31 189.69 C 315.25 193.19 315.86 178.11 318.07 172.07 C 320.28 166.04 325.95 154.04 317.22 151.78 C 308.50 149.52 302.82 144.89 294.01 143.99 C 285.20 143.09 272.35 142.84 274.00 133.00 C 275.65 123.16 275.76 108.15 267.00 109.00 C 258.24 109.85 242.63 104.53 240.00 113.00 C 237.37 121.47 241.97 135.06 240.00 144.00
C 231.19 145.11 222.46 148.61 214.75 152.75 C 207.03 156.88 202.12 161.78 196.25 168.25 C 190.38 174.72 187.26 182.39 184.93 190.93 C 182.60 199.47 182.32 212.53 185.01 220.99 C 187.70 229.45 190.63 236.95 196.75 243.25 C 202.87 249.55 208.18 253.37 215.30 257.70 C 222.42 262.03 230.22 266.06 237.98 269.02 C 245.73 271.99 254.67 275.12 261.97 279.03 C 269.27 282.93 276.44 286.46 280.68 294.32 C 284.92 302.19 283.79 313.82 277.25 320.25 C 270.71 326.68 262.22 329.98 253.01 330.01 C 243.79 330.04 233.30 331.70 224.07 327.93 C 214.85 324.16 208.23 325.48 199.23 318.77 C 190.23 312.06 187.12 323.08 185.93 331.93 C 184.73 340.77 176.27 350.12 184.92 355.08 C 193.57 360.04 200.50 361.67 209.78 364.22 C 219.06 366.77 228.36 367.84 238.00 369.00
C 237.63 379.26 238.49 385.32 238.00 396.00 C 237.51 406.68 248.20 401.61 257.00 403.00 C 265.80 404.39 274.54 402.63 272.00 392.00 C 269.46 381.37 273.91 376.14 272.00 366.00 Z"/>
</g>
<g fill="None" fill-opacity="0.0" stroke="#000000" stroke-opacity="0.00" stroke-width="0.3"><path d="
M 0.00 512.00 
L 83.00 512.00
C 41.71 507.00 5.02 470.36 0.00 429.00
L 0.00 512.00 Z"/>
</g>
<g fill="None" fill-opacity="0.0" stroke="#000000" stroke-opacity="0.00" stroke-width="0.3"><path d="
M 429.00 512.00 
L 512.00 512.00
L 512.00 429.00
C 507.00 470.29 470.36 506.98 429.00 512.00 Z"/>
</g>
<g fill="#000000" fill-opacity="0.00" stroke="None">
<path d="
M 0.00 85.00 
C 3.76 42.16 42.23 3.75 85.00 0.00
L 0.00 0.00
L 0.00 85.00 Z"/>
</g>
<g fill="#323232" fill-opacity="1.00" stroke="None">
<path d="
M 0.00 85.00 
L 0.00 429.00
C 5.02 470.36 41.71 507.00 83.00 512.00
L 429.00 512.00
C 470.36 506.98 507.00 470.29 512.00 429.00
L 512.00 85.00
C 508.33 42.71 470.84 5.10 429.00 0.00
L 85.00 0.00
C 42.23 3.75 3.76 42.16 0.00 85.00
M 272.00 366.00 
C 273.91 376.14 269.46 381.37 272.00 392.00 C 274.54 402.63 265.80 404.39 257.00 403.00 C 248.20 401.61 237.51 406.68 238.00 396.00 C 238.49 385.32 237.63 379.26 238.00 369.00
C 228.36 367.84 219.06 366.77 209.78 364.22 C 200.50 361.67 193.57 360.04 184.92 355.08 C 176.27 350.12 184.73 340.77 185.93 331.93 C 187.12 323.08 190.23 312.06 199.23 318.77 C 208.23 325.48 214.85 324.16 224.07 327.93 C 233.30 331.70 243.79 330.04 253.01 330.01 C 262.22 329.98 270.71 326.68 277.25 320.25 C 283.79 313.82 284.92 302.19 280.68 294.32 C 276.44 286.46 269.27 282.93 261.97 279.03 C 254.67 275.12 245.73 271.99 237.98 269.02 C 230.22 266.06 222.42 262.03 215.30 257.70 C 208.18 253.37 202.87 249.55 196.75 243.25 C 190.63 236.95 187.70 229.45 185.01 220.99 C 182.32 212.53 182.60 199.47 184.93 190.93 C 187.26 182.39 190.38 174.72 196.25 168.25 C 202.12 161.78 207.03 156.88 214.75 152.75 C 222.46 148.61 231.19 145.11 240.00 144.00
C 241.97 135.06 237.37 121.47 240.00 113.00 C 242.63 104.53 258.24 109.85 267.00 109.00 C 275.76 108.15 275.65 123.16 274.00 133.00 C 272.35 142.84 285.20 143.09 294.01 143.99 C 302.82 144.89 308.50 149.52 317.22 151.78 C 325.95 154.04 320.28 166.04 318.07 172.07 C 315.86 178.11 315.25 193.19 307.31 189.69 C 299.36 186.20 293.36 182.97 284.98 181.02 C 276.60 179.08 264.67 178.50 256.00 179.00 C 247.33 179.50 240.15 182.45 235.08 189.08 C 230.02 195.72 230.21 205.51 234.92 212.08 C 239.63 218.65 246.36 221.34 253.08 224.92 C 259.79 228.51 268.10 230.82 275.02 233.98 C 281.95 237.13 289.48 240.22 296.08 243.92 C 302.68 247.63 308.27 251.78 313.75 257.25 C 319.23 262.71 323.92 267.93 326.77 275.23 C 329.62 282.53 331.74 292.94 331.98 301.02 C 332.21 309.11 329.65 319.42 326.68 326.68 C 323.71 333.93 319.43 339.40 314.25 345.25 C 309.06 351.09 302.79 354.25 295.92 357.92 C 289.06 361.60 279.95 365.02 272.00 366.00 Z"/>
</g>
<g fill="#000000" fill-opacity="0.00" stroke="None">
<path d="
M 512.00 85.00 
L 512.00 0.00
L 429.00 0.00
C 470.84 5.10 508.33 42.71 512.00 85.00 Z"/>
</g>
<g fill="#000000" fill-opacity="0.00" stroke="None">
<path d="
M 272.00 366.00 
C 279.95 365.02 289.06 361.60 295.92 357.92 C 302.79 354.25 309.06 351.09 314.25 345.25 C 319.43 339.40 323.71 333.93 326.68 326.68 C 329.65 319.42 332.21 309.11 331.98 301.02 C 331.74 292.94 329.62 282.53 326.77 275.23 C 323.92 267.93 319.23 262.71 313.75 257.25 C 308.27 251.78 302.68 247.63 296.08 243.92 C 289.48 240.22 281.95 237.13 275.02 233.98 C 268.10 230.82 259.79 228.51 253.08 224.92 C 246.36 221.34 239.63 218.65 234.92 212.08 C 230.21 205.51 230.02 195.72 235.08 189.08 C 240.15 182.45 247.33 179.50 256.00 179.00 C 264.67 178.50 276.60 179.08 284.98 181.02 C 293.36 182.97 299.36 186.20 307.31 189.69 C 315.25 193.19 315.86 178.11 318.07 172.07 C 320.28 166.04 325.95 154.04 317.22 151.78 C 308.50 149.52 302.82 144.89 294.01 143.99 C 285.20 143.09 272.35 142.84 274.00 133.00 C 275.65 123.16 275.76 108.15 267.00 109.00 C 258.24 109.85 242.63 104.53 240.00 113.00 C 237.37 121.47 241.97 135.06 240.00 144.00
C 231.19 145.11 222.46 148.61 214.75 152.75 C 207.03 156.88 202.12 161.78 196.25 168.25 C 190.38 174.72 187.26 182.39 184.93 190.93 C 182.60 199.47 182.32 212.53 185.01 220.99 C 187.70 229.45 190.63 236.95 196.75 243.25 C 202.87 249.55 208.18 253.37 215.30 257.70 C 222.42 262.03 230.22 266.06 237.98 269.02 C 245.73 271.99 254.67 275.12 261.97 279.03 C 269.27 282.93 276.44 286.46 280.68 294.32 C 284.92 302.19 283.79 313.82 277.25 320.25 C 270.71 326.68 262.22 329.98 253.01 330.01 C 243.79 330.04 233.30 331.70 224.07 327.93 C 214.85 324.16 208.23 325.48 199.23 318.77 C 190.23 312.06 187.12 323.08 185.93 331.93 C 184.73 340.77 176.27 350.12 184.92 355.08 C 193.57 360.04 200.50 361.67 209.78 364.22 C 219.06 366.77 228.36 367.84 238.00 369.00
C 237.63 379.26 238.49 385.32 238.00 396.00 C 237.51 406.68 248.20 401.61 257.00 403.00 C 265.80 404.39 274.54 402.63 272.00 392.00 C 269.46 381.37 273.91 376.14 272.00 366.00 Z"/>
</g>
<g fill="#000000" fill-opacity="0.00" stroke="None">
<path d="
M 0.00 512.00 
L 83.00 512.00
C 41.71 507.00 5.02 470.36 0.00 429.00
L 0.00 512.00 Z"/>
</g>
<g fill="#000000" fill-opacity="0.00" stroke="None">
<path d="
M 429.00 512.00 
L 512.00 512.00
L 512.00 429.00
C 507.00 470.29 470.36 506.98 429.00 512.00 Z"/>
</g>
</svg>